<?xml version="1.0" standalone="no"?>
<!DOCTYPE svg PUBLIC "-//W3C//DTD SVG 20010904//EN"
 "http://www.w3.org/TR/2001/REC-SVG-20010904/DTD/svg10.dtd">
<svg version="1.0" xmlns="http://www.w3.org/2000/svg"
 width="640.000000pt" height="1280.000000pt" viewBox="0 0 640.000000 1280.000000"
 preserveAspectRatio="xMidYMid meet">
<metadata>
Created by potrace 1.15, written by Peter Selinger 2001-2017
</metadata>
<g transform="translate(0.000000,1280.000000) scale(0.100000,-0.100000)"
fill="#050505" stroke="none">
<path d="M3135 12779 c-124 -20 -131 -22 -170 -58 -23 -21 -63 -51 -91 -66
-65 -37 -78 -50 -130 -116 -43 -56 -44 -60 -74 -225 -25 -145 -30 -198 -32
-372 -3 -177 -1 -205 13 -215 12 -9 17 -38 22 -127 5 -115 27 -202 63 -258 12
-19 14 -37 9 -80 -10 -81 -16 -93 -112 -207 l-88 -104 -155 -60 c-203 -80
-376 -111 -619 -111 -77 0 -102 -4 -128 -20 -32 -19 -53 -66 -53 -117 0 -13
-29 -83 -64 -157 -35 -73 -89 -212 -119 -307 -92 -287 -110 -392 -179 -1053
l-62 -591 0 -425 c-1 -368 2 -458 22 -675 13 -137 31 -299 40 -360 11 -74 16
-162 15 -271 l-1 -160 93 -46 c110 -56 105 -41 105 -276 0 -179 17 -274 63
-357 21 -37 31 -44 152 -91 86 -34 157 -55 212 -63 l84 -12 45 32 c39 28 46
31 59 18 17 -17 89 -285 150 -559 39 -174 77 -296 249 -800 l203 -595 41 -15
c38 -13 42 -17 48 -60 6 -45 27 -80 48 -80 6 0 20 -16 31 -36 11 -21 43 -57
72 -82 43 -37 53 -52 53 -77 0 -80 -52 -482 -76 -580 -25 -108 -26 -115 -21
-380 3 -148 9 -286 14 -306 12 -42 -7 -516 -21 -539 -5 -8 -47 -74 -93 -147
-83 -130 -84 -132 -109 -255 -33 -160 -30 -275 9 -361 14 -32 31 -94 37 -140
6 -45 36 -166 66 -269 30 -102 52 -193 49 -200 -7 -17 81 -91 210 -180 157
-108 193 -125 327 -159 l127 -31 77 17 c67 15 81 22 115 58 32 35 39 51 44 97
3 30 12 75 20 100 13 42 13 47 -14 110 -15 36 -90 161 -165 279 l-138 215 29
25 c16 14 34 33 40 41 26 35 80 324 173 923 54 351 100 640 103 643 7 7 197
-77 257 -114 30 -19 105 -82 165 -141 70 -67 138 -122 187 -151 60 -35 81 -53
94 -83 10 -21 32 -51 51 -67 32 -28 33 -32 33 -102 1 -49 6 -80 16 -93 22 -29
51 -136 70 -255 16 -101 21 -113 121 -305 120 -231 179 -305 242 -305 29 0 43
9 83 51 49 53 76 110 108 234 22 86 50 270 50 329 0 66 -37 174 -81 238 -89
128 -169 346 -169 459 0 57 1 59 33 73 33 13 34 15 40 91 6 88 -7 287 -22 327
-11 29 -154 149 -211 177 -19 10 -109 48 -200 85 l-166 68 -116 201 c-88 152
-128 211 -161 239 -37 30 -49 50 -76 125 -35 99 -99 210 -167 289 l-44 52 10
268 c17 468 53 828 125 1268 14 81 25 151 25 155 0 3 4 12 9 20 7 11 21 6 68
-23 l59 -36 127 12 127 12 70 133 c84 161 103 242 104 440 l1 132 27 -6 c50
-10 52 6 53 417 0 206 -1 467 -2 580 -1 113 -2 264 -3 335 0 111 -5 149 -31
255 -31 124 -31 126 -19 235 12 100 10 136 -14 405 -14 162 -33 324 -41 360
-10 46 -20 280 -37 789 -21 691 -23 726 -43 755 -22 32 -28 34 -150 61 -145
31 -330 108 -530 218 -76 42 -143 90 -218 155 -106 94 -107 95 -101 131 8 45
45 118 97 195 42 62 93 202 104 285 3 27 17 60 33 81 58 77 71 112 130 360 79
332 80 413 5 560 -37 74 -183 223 -251 256 -125 61 -283 75 -489 43z m779
-4216 c37 -218 53 -427 38 -478 l-9 -30 -13 30 c-6 17 -16 77 -21 135 -6 58
-16 131 -24 163 -15 60 -20 198 -8 210 16 17 31 4 37 -30z m-2094 -75 c11 -57
-39 -423 -53 -387 -23 62 -7 334 24 416 12 32 19 25 29 -29z m159 -2377 c16
-42 33 -90 37 -106 l7 -30 -31 29 c-23 21 -34 46 -47 100 -9 39 -19 80 -22 91
-5 17 -4 18 10 7 9 -8 30 -48 46 -91z"/>
</g>
</svg>
